<?xml version="1.0" standalone="no"?>
<!DOCTYPE svg PUBLIC "-//W3C//DTD SVG 20010904//EN"
 "http://www.w3.org/TR/2001/REC-SVG-20010904/DTD/svg10.dtd">
<svg version="1.0" xmlns="http://www.w3.org/2000/svg"
 width="35.000000pt" height="35.000000pt" viewBox="0 0 35.000000 35.000000"
 preserveAspectRatio="xMidYMid meet">

<g transform="translate(0.000000,35.000000) scale(0.100000,-0.100000)"
fill="#56AB0A" stroke="none">
<path d="M111 303 c-96 -50 -106 -182 -20 -246 38 -28 106 -32 148 -10 96 50
106 182 20 246 -38 28 -106 32 -148 10z m79 -133 c0 -47 -3 -60 -15 -60 -11 0
-15 11 -15 40 0 22 -4 40 -10 40 -14 0 -12 27 3 33 32 14 37 7 37 -53z"/>
</g>
</svg>
