<?xml version="1.0" standalone="no"?>
<!DOCTYPE svg PUBLIC "-//W3C//DTD SVG 20010904//EN"
 "http://www.w3.org/TR/2001/REC-SVG-20010904/DTD/svg10.dtd">
<svg version="1.0" xmlns="http://www.w3.org/2000/svg"
 width="35.000000pt" height="35.000000pt" viewBox="0 0 35.000000 35.000000"
 preserveAspectRatio="xMidYMid meet">

<g transform="translate(0.000000,35.000000) scale(0.100000,-0.100000)"
fill="#56AB0A" stroke="none">
<path d="M113 299 c-42 -21 -83 -82 -83 -124 0 -43 41 -104 84 -124 53 -26 69
-26 122 0 43 20 84 81 84 124 0 43 -41 104 -84 124 -53 26 -71 26 -123 0z m88
-59 c27 -15 24 -49 -8 -82 l-27 -28 33 0 c52 0 32 -24 -22 -28 -39 -3 -47 0
-47 14 0 10 14 33 32 51 25 26 29 36 20 45 -10 10 -15 10 -21 -1 -5 -7 -17
-11 -27 -9 -18 3 -17 5 4 26 25 25 35 27 63 12z"/>
</g>
</svg>
