<?xml version="1.0" standalone="no"?>
<!DOCTYPE svg PUBLIC "-//W3C//DTD SVG 20010904//EN"
 "http://www.w3.org/TR/2001/REC-SVG-20010904/DTD/svg10.dtd">
<svg version="1.0" xmlns="http://www.w3.org/2000/svg"
 width="35.000000pt" height="35.000000pt" viewBox="0 0 35.000000 35.000000"
 preserveAspectRatio="xMidYMid meet">

<g transform="translate(0.000000,35.000000) scale(0.100000,-0.100000)"
fill="#56AB0A" stroke="none">
<path d="M113 299 c-42 -21 -83 -82 -83 -124 0 -43 41 -104 84 -124 53 -26 69
-26 122 0 43 20 84 81 84 124 0 43 -41 104 -84 124 -53 26 -71 26 -123 0z m94
-61 c6 -7 11 -37 11 -65 1 -44 -3 -55 -20 -64 -15 -8 -27 -8 -44 0 -26 12 -33
41 -9 41 8 0 15 -4 15 -10 0 -5 7 -10 15 -10 8 0 15 7 15 15 0 8 -7 15 -15 15
-8 0 -15 7 -15 15 0 8 7 15 15 15 8 0 15 7 15 16 0 12 -7 14 -30 9 -31 -7 -39
2 -18 23 16 16 53 15 65 0z"/>
</g>
</svg>
