<?xml version="1.0" standalone="no"?>
<!DOCTYPE svg PUBLIC "-//W3C//DTD SVG 20010904//EN"
 "http://www.w3.org/TR/2001/REC-SVG-20010904/DTD/svg10.dtd">
<svg version="1.0" xmlns="http://www.w3.org/2000/svg"
 width="18.000000pt" height="18.000000pt" viewBox="0 0 18.000000 18.000000"
 preserveAspectRatio="xMidYMid meet">

<g transform="translate(0.000000,18.000000) scale(0.100000,-0.100000)"
fill="#343a40" stroke="none">
<path d="M41 164 c0 -11 3 -14 6 -6 3 7 2 16 -1 19 -3 4 -6 -2 -5 -13z"/>
<path d="M131 164 c0 -11 3 -14 6 -6 3 7 2 16 -1 19 -3 4 -6 -2 -5 -13z"/>
<path d="M4 129 c3 -17 6 -53 6 -80 l0 -49 80 0 80 0 0 49 c0 27 3 63 6 80 5
24 3 31 -10 31 -9 0 -16 -4 -16 -10 0 -5 -7 -10 -15 -10 -8 0 -15 5 -15 10 0
6 -13 10 -30 10 -16 0 -30 -4 -30 -10 0 -5 -7 -10 -15 -10 -8 0 -15 5 -15 10
0 6 -7 10 -16 10 -13 0 -15 -7 -10 -31z m156 -59 l0 -50 -70 0 -70 0 0 50 0
50 70 0 70 0 0 -50z"/>
</g>
</svg>
